<?xml version="1.0" encoding="UTF-8" standalone="no"?>
<!-- Created with Inkscape (http://www.inkscape.org/) -->

<svg
   version="1.1"
   id="svg2"
   width="1122.52"
   height="793.70667"
   viewBox="0 0 1122.52 793.70667"
   sodipodi:docname="indirimkuponum-seeklogo.com.ai"
   xmlns:inkscape="http://www.inkscape.org/namespaces/inkscape"
   xmlns:sodipodi="http://sodipodi.sourceforge.net/DTD/sodipodi-0.dtd"
   xmlns="http://www.w3.org/2000/svg"
   xmlns:svg="http://www.w3.org/2000/svg">
  <defs
     id="defs6">
    <clipPath
       clipPathUnits="userSpaceOnUse"
       id="clipPath18">
      <path
         d="M 0,595.28 H 841.89 V 0 H 0 Z"
         id="path16" />
    </clipPath>
  </defs>
  <sodipodi:namedview
     id="namedview4"
     pagecolor="#ffffff"
     bordercolor="#000000"
     borderopacity="0.25"
     inkscape:showpageshadow="2"
     inkscape:pageopacity="0.0"
     inkscape:pagecheckerboard="0"
     inkscape:deskcolor="#d1d1d1" />
  <g
     id="g8"
     inkscape:groupmode="layer"
     inkscape:label="indirimkuponum-seeklogo.com"
     transform="matrix(1.3333333,0,0,-1.3333333,0,793.70667)">
    <path
       d="m 427.219,330.743 h 16.521 v -62.367 h -16.521 z m -0.35,21.642 h 17.22 v -15.011 h -17.22 z"
       style="fill:#c40606;fill-opacity:1;fill-rule:nonzero;stroke:none"
       id="path10" />
    <g
       id="g12">
      <g
         id="g14"
         clip-path="url(#clipPath18)">
        <g
           id="g20"
           transform="translate(457.6992,330.7429)">
          <path
             d="m 0,0 h 16.523 v -8.377 c 3.607,5.002 8.145,9.541 16.058,9.541 11.634,0 18.383,-8.145 18.383,-21.06 V -62.367 H 34.442 v 37.583 c 0,7.33 -3.258,11.054 -8.844,11.054 -5.468,0 -9.075,-3.724 -9.075,-11.054 V -62.367 H 0 Z"
             style="fill:#c40606;fill-opacity:1;fill-rule:nonzero;stroke:none"
             id="path22" />
        </g>
        <g
           id="g24"
           transform="translate(560.085,298.9782)">
          <path
             d="M 0,0 V 1.162 C 0,11.751 -5.351,18.5 -12.217,18.5 c -6.864,0 -12.1,-6.749 -12.1,-17.338 V 0 c 0,-10.589 5.236,-17.338 12.1,-17.338 C -5.351,-17.338 0,-10.589 0,0 m -40.841,-0.349 v 1.862 c 0,21.292 11.287,31.415 23.737,31.415 8.378,0 13.266,-4.538 16.873,-9.192 v 29.671 h 16.523 v -84.01 H -0.231 v 8.612 c -3.607,-5.237 -8.611,-9.775 -16.873,-9.775 -12.333,0 -23.737,10.123 -23.737,31.417"
             style="fill:#c40606;fill-opacity:1;fill-rule:nonzero;stroke:none"
             id="path26" />
        </g>
        <path
           d="m 590.217,330.743 h 16.522 v -62.367 h -16.522 z m -0.349,21.642 h 17.22 v -15.011 h -17.22 z"
           style="fill:#c40606;fill-opacity:1;fill-rule:nonzero;stroke:none"
           id="path28" />
        <g
           id="g30"
           transform="translate(620.6973,330.7429)">
          <path
             d="m 0,0 h 16.523 v -11.054 c 3.026,7.564 8.029,12.567 16.873,12.101 v -17.918 h -0.7 c -10.121,0 -16.173,-6.285 -16.173,-19.317 v -26.179 l -16.523,0 z"
             style="fill:#c40606;fill-opacity:1;fill-rule:nonzero;stroke:none"
             id="path32" />
        </g>
        <path
           d="M 663.979,330.743 H 680.5 v -62.367 h -16.521 z m -0.35,21.642 h 17.22 v -15.011 h -17.22 z"
           style="fill:#c40606;fill-opacity:1;fill-rule:nonzero;stroke:none"
           id="path34" />
        <g
           id="g36"
           transform="translate(694.459,330.7429)">
          <path
             d="m 0,0 h 16.523 v -8.377 c 3.724,5.236 8.377,9.541 16.173,9.541 7.215,0 12.45,-3.49 15.36,-9.075 4.538,5.468 10.123,9.075 17.686,9.075 11.054,0 18.501,-7.213 18.501,-20.945 V -62.367 H 67.837 v 37.583 c 0,7.214 -3.143,11.054 -8.611,11.054 -5.468,0 -8.843,-3.84 -8.843,-11.054 V -62.367 H 33.859 v 37.583 c 0,7.214 -3.025,11.054 -8.493,11.054 -5.469,0 -8.843,-3.84 -8.843,-11.054 V -62.367 H 0 Z"
             style="fill:#c40606;fill-opacity:1;fill-rule:nonzero;stroke:none"
             id="path38" />
        </g>
        <g
           id="g40"
           transform="translate(426.8691,252.8503)">
          <path
             d="m 0,0 h 7.08 v -19.146 l 7.28,9.872 h 8.277 L 14.16,-19.895 22.836,-35.999 H 14.76 l -5.486,10.72 -2.194,-2.843 v -7.877 H 0 Z"
             style="fill:#1d96d0;fill-opacity:1;fill-rule:nonzero;stroke:none"
             id="path42" />
        </g>
        <g
           id="g44"
           transform="translate(452.2002,225.3777)">
          <path
             d="M 0,0 V 18.198 H 7.028 V 2.094 c 0,-3.141 1.397,-4.737 3.79,-4.737 2.393,0 3.89,1.596 3.89,4.737 v 16.104 h 7.08 V -8.526 h -7.08 v 3.59 C 13.211,-7.08 11.218,-9.024 7.876,-9.024 2.841,-9.024 0,-5.535 0,0"
             style="fill:#1d96d0;fill-opacity:1;fill-rule:nonzero;stroke:none"
             id="path46" />
        </g>
        <g
           id="g48"
           transform="translate(497.0732,229.9646)">
          <path
             d="m 0,0 v 0.498 c 0,4.537 -2.244,7.43 -5.186,7.43 -2.941,0 -5.234,-2.893 -5.234,-7.43 V 0 c 0,-4.538 2.293,-7.429 5.234,-7.429 C -2.244,-7.429 0,-4.538 0,0 m -17.401,13.611 h 7.08 V 9.922 c 1.545,2.243 3.689,4.188 7.229,4.188 C 2.193,14.11 7.08,9.773 7.08,0.647 v -0.796 c 0,-9.125 -4.837,-13.462 -10.172,-13.462 -3.589,0 -5.732,1.944 -7.229,3.937 v -10.969 h -7.08 z"
             style="fill:#1d96d0;fill-opacity:1;fill-rule:nonzero;stroke:none"
             id="path50" />
        </g>
        <g
           id="g52"
           transform="translate(525.9941,229.9646)">
          <path
             d="m 0,0 v 0.35 c 0,4.337 -2.194,7.628 -5.585,7.628 -3.54,0 -5.585,-3.242 -5.585,-7.579 V 0.051 c 0,-4.288 2.244,-7.629 5.635,-7.629 C -2.045,-7.578 0,-4.339 0,0 m -18.149,-0.101 v 0.549 c 0,7.929 5.385,13.662 12.614,13.662 7.229,0 12.514,-5.633 12.514,-13.612 V -0.05 c 0,-7.928 -5.334,-13.662 -12.564,-13.662 -7.229,0 -12.564,5.634 -12.564,13.611"
             style="fill:#1d96d0;fill-opacity:1;fill-rule:nonzero;stroke:none"
             id="path54" />
        </g>
        <g
           id="g56"
           transform="translate(537.6611,243.5759)">
          <path
             d="m 0,0 h 7.08 v -3.59 c 1.545,2.144 3.49,4.089 6.881,4.089 4.985,0 7.878,-3.49 7.878,-9.025 v -18.199 h -7.08 v 16.105 c 0,3.141 -1.396,4.736 -3.79,4.736 -2.344,0 -3.889,-1.595 -3.889,-4.736 V -26.725 H 0 Z"
             style="fill:#1d96d0;fill-opacity:1;fill-rule:nonzero;stroke:none"
             id="path58" />
        </g>
        <g
           id="g60"
           transform="translate(564.8369,225.3777)">
          <path
             d="M 0,0 V 18.198 H 7.03 V 2.094 c 0,-3.141 1.396,-4.737 3.79,-4.737 2.393,0 3.889,1.596 3.889,4.737 v 16.104 h 7.08 V -8.526 h -7.08 v 3.59 C 13.213,-7.08 11.219,-9.024 7.877,-9.024 2.843,-9.024 0,-5.535 0,0"
             style="fill:#1d96d0;fill-opacity:1;fill-rule:nonzero;stroke:none"
             id="path62" />
        </g>
        <g
           id="g64"
           transform="translate(592.3105,243.5759)">
          <path
             d="m 0,0 h 7.079 v -3.59 c 1.596,2.245 3.591,4.089 6.932,4.089 3.092,0 5.335,-1.495 6.581,-3.89 1.944,2.344 4.337,3.89 7.579,3.89 4.735,0 7.927,-3.091 7.927,-8.975 v -18.249 h -7.03 v 16.105 c 0,3.091 -1.345,4.736 -3.689,4.736 -2.344,0 -3.79,-1.645 -3.79,-4.736 v -16.105 h -7.08 v 16.105 c 0,3.091 -1.297,4.736 -3.64,4.736 -2.344,0 -3.79,-1.645 -3.79,-4.736 V -26.725 H 0 Z"
             style="fill:#1d96d0;fill-opacity:1;fill-rule:nonzero;stroke:none"
             id="path66" />
        </g>
        <path
           d="m 633.896,224.529 h 7.728 v -7.678 h -7.728 z"
           style="fill:#1d96d0;fill-opacity:1;fill-rule:nonzero;stroke:none"
           id="path68" />
        <g
           id="g70"
           transform="translate(647.2578,243.5759)">
          <path
             d="m 0,0 h 7.08 v -3.59 c 1.545,2.144 3.489,4.089 6.88,4.089 4.986,0 7.879,-3.49 7.879,-9.025 v -18.199 h -7.08 v 16.105 c 0,3.141 -1.396,4.736 -3.79,4.736 -2.344,0 -3.889,-1.595 -3.889,-4.736 V -26.725 H 0 Z"
             style="fill:#1d96d0;fill-opacity:1;fill-rule:nonzero;stroke:none"
             id="path72" />
        </g>
        <g
           id="g74"
           transform="translate(689.6895,232.2585)">
          <path
             d="M 0,0 C -0.301,3.689 -1.896,5.982 -4.538,5.982 -7.131,5.982 -8.825,3.788 -9.225,0 Z m -16.205,-2.344 v 0.449 c 0,7.928 4.935,13.711 11.667,13.711 7.628,0 11.368,-6.233 11.368,-14.211 0,-0.397 0,-1.246 -0.049,-2.292 H -9.174 c 0.597,-3.541 2.791,-5.384 5.783,-5.384 2.193,0 3.889,0.996 5.583,2.641 l 3.641,-4.288 c -2.442,-2.692 -5.534,-4.288 -9.522,-4.288 -7.082,0 -12.516,5.335 -12.516,13.662"
             style="fill:#1d96d0;fill-opacity:1;fill-rule:nonzero;stroke:none"
             id="path76" />
        </g>
        <g
           id="g78"
           transform="translate(702.2051,223.532)">
          <path
             d="m 0,0 v 14.062 h -2.692 v 5.982 H 0 v 6.83 h 7.08 v -6.83 h 5.285 V 14.062 H 7.08 V 1.446 c 0,-1.545 0.698,-2.293 2.192,-2.293 1.098,0 2.145,0.299 3.042,0.748 V -5.732 C 10.919,-6.531 9.225,-7.128 7.08,-7.128 2.991,-7.128 0,-5.533 0,0"
             style="fill:#1d96d0;fill-opacity:1;fill-rule:nonzero;stroke:none"
             id="path80" />
        </g>
        <g
           id="g82"
           transform="translate(116.6943,357.0144)">
          <path
             d="m 0,0 c -1.921,4.048 -0.197,8.886 3.851,10.807 4.047,1.921 8.885,0.197 10.807,-3.85 C 16.579,2.909 14.854,-1.93 10.807,-3.851 6.759,-5.771 1.921,-4.047 0,0 M 63.003,-167.289 48.898,-3.355 51.288,0.071 18.414,15.327 c -0.066,0.039 -0.139,0.068 -0.205,0.106 -0.351,0.201 -0.709,0.378 -1.069,0.554 -0.221,0.108 -0.436,0.224 -0.662,0.324 -0.403,0.177 -0.813,0.325 -1.224,0.471 -0.209,0.074 -0.412,0.163 -0.625,0.23 -0.582,0.183 -1.171,0.334 -1.763,0.456 -0.303,0.063 -0.615,0.099 -0.922,0.147 -0.334,0.051 -0.666,0.105 -1.001,0.137 -0.116,0.012 -0.228,0.039 -0.345,0.048 -0.265,0.02 -0.523,0.012 -0.785,0.021 C 9.605,17.829 9.398,17.838 9.191,17.838 8.785,17.839 8.383,17.822 7.983,17.796 7.8,17.784 7.618,17.773 7.436,17.755 7.02,17.716 6.609,17.66 6.201,17.593 6.03,17.565 5.86,17.536 5.691,17.503 5.288,17.425 4.892,17.333 4.499,17.229 4.312,17.18 4.127,17.128 3.942,17.073 3.586,16.966 3.235,16.85 2.888,16.721 2.657,16.637 2.429,16.548 2.202,16.454 1.914,16.335 1.63,16.209 1.35,16.076 1.069,15.943 0.792,15.803 0.518,15.655 0.302,15.539 0.089,15.418 -0.123,15.293 -0.441,15.104 -0.753,14.906 -1.062,14.698 -1.221,14.589 -1.379,14.479 -1.535,14.365 -1.864,14.127 -2.186,13.878 -2.5,13.616 -2.634,13.505 -2.764,13.392 -2.893,13.277 -3.203,13.003 -3.506,12.72 -3.799,12.423 -3.928,12.293 -4.052,12.159 -4.177,12.025 -4.45,11.731 -4.717,11.431 -4.974,11.116 -5.104,10.956 -5.228,10.789 -5.354,10.624 -5.512,10.415 -5.682,10.219 -5.833,10.002 -5.901,9.905 -5.95,9.802 -6.016,9.704 -6.202,9.424 -6.37,9.133 -6.541,8.842 -6.699,8.574 -6.868,8.309 -7.01,8.035 -7.29,7.499 -7.545,6.947 -7.772,6.38 -7.855,6.171 -7.916,5.958 -7.99,5.747 -8.136,5.338 -8.28,4.928 -8.397,4.506 -8.464,4.266 -8.51,4.023 -8.566,3.782 -8.657,3.394 -8.747,3.006 -8.813,2.609 -8.825,2.533 -8.849,2.458 -8.86,2.383 L -24.211,-57.725 34.89,-181.707 c 0,0 7.165,-13.861 22.822,-6.955 l 14.469,6.948 c -8.053,4.999 -9.178,14.425 -9.178,14.425"
             style="fill:#86c040;fill-opacity:1;fill-rule:nonzero;stroke:none"
             id="path84" />
        </g>
        <g
           id="g86"
           transform="translate(69.9663,272.8366)">
          <path
             d="M 0,0 C -2.288,2.229 -2.336,5.89 -0.108,8.178 2.121,10.466 5.782,10.515 8.07,8.286 10.358,6.058 10.407,2.396 8.178,0.107 5.95,-2.181 2.288,-2.229 0,0 M 71.629,-104.103 15.196,14.282 8.504,14.813 C 8.45,14.822 8.395,14.823 8.341,14.832 8.056,14.88 7.773,14.909 7.489,14.938 7.314,14.955 7.142,14.979 6.966,14.989 6.653,15.008 6.342,15.005 6.032,15.001 5.873,14.999 5.716,15.008 5.557,14.999 5.122,14.978 4.691,14.932 4.265,14.867 4.047,14.834 3.83,14.781 3.612,14.736 3.376,14.688 3.141,14.642 2.91,14.58 2.829,14.559 2.747,14.549 2.667,14.525 2.485,14.474 2.314,14.404 2.136,14.346 1.996,14.299 1.855,14.254 1.717,14.202 1.445,14.103 1.181,13.991 0.92,13.874 0.801,13.821 0.682,13.769 0.564,13.712 0.296,13.582 0.036,13.442 -0.221,13.297 -0.328,13.235 -0.434,13.174 -0.54,13.11 -0.789,12.958 -1.031,12.798 -1.268,12.631 -1.38,12.552 -1.491,12.472 -1.601,12.389 -1.813,12.229 -2.019,12.063 -2.219,11.892 -2.352,11.778 -2.482,11.662 -2.611,11.543 -2.774,11.393 -2.932,11.238 -3.086,11.079 -3.241,10.921 -3.392,10.758 -3.538,10.591 -3.654,10.46 -3.766,10.326 -3.876,10.19 -4.042,9.985 -4.202,9.775 -4.356,9.56 -4.436,9.447 -4.514,9.334 -4.59,9.22 -4.751,8.979 -4.904,8.732 -5.049,8.479 -5.111,8.372 -5.17,8.265 -5.228,8.155 -5.367,7.896 -5.499,7.632 -5.622,7.36 -5.676,7.241 -5.725,7.121 -5.775,7 -5.885,6.736 -5.989,6.469 -6.082,6.195 -6.13,6.056 -6.171,5.913 -6.214,5.771 -6.268,5.593 -6.333,5.42 -6.38,5.237 -6.401,5.155 -6.409,5.074 -6.428,4.993 -6.483,4.76 -6.523,4.522 -6.566,4.286 -6.604,4.067 -6.652,3.849 -6.679,3.631 -6.733,3.203 -6.767,2.771 -6.778,2.335 -6.781,2.176 -6.769,2.018 -6.766,1.858 c 0.004,-0.309 0.009,-0.619 0.036,-0.93 0.015,-0.177 0.044,-0.351 0.066,-0.527 0.036,-0.281 0.072,-0.562 0.127,-0.844 0.01,-0.054 0.013,-0.11 0.024,-0.163 l 4.654,-43.983 70.263,-68.2 c 0,0 7.457,-6.752 15.722,-0.073 -8.513,1.061 -12.497,8.759 -12.497,8.759"
             style="fill:#fdbd18;fill-opacity:1;fill-rule:nonzero;stroke:none"
             id="path88" />
        </g>
        <g
           id="g90"
           transform="translate(237.7485,411.8474)">
          <path
             d="m 0,0 c -5.348,-0.451 -10.05,3.52 -10.5,8.868 -0.452,5.348 3.519,10.049 8.867,10.5 C 3.715,19.819 8.417,15.849 8.868,10.5 9.318,5.153 5.349,0.451 0,0 m -15.577,-215.593 c -19.543,6.197 -14.84,24.956 -14.84,24.956 l 46.516,163.76 26.505,18.759 -26,26.426 c -0.058,0.071 -0.126,0.135 -0.185,0.205 -0.31,0.374 -0.637,0.722 -0.966,1.071 -0.203,0.214 -0.395,0.436 -0.606,0.642 -0.378,0.368 -0.775,0.707 -1.175,1.043 -0.203,0.172 -0.393,0.356 -0.604,0.522 -0.576,0.45 -1.173,0.868 -1.786,1.254 -0.312,0.198 -0.647,0.37 -0.972,0.553 -0.352,0.197 -0.703,0.398 -1.064,0.575 -0.126,0.062 -0.24,0.139 -0.368,0.199 -0.288,0.134 -0.582,0.233 -0.872,0.354 -0.229,0.096 -0.458,0.194 -0.69,0.281 -0.455,0.171 -0.913,0.321 -1.373,0.46 -0.21,0.064 -0.419,0.128 -0.631,0.185 -0.482,0.131 -0.966,0.242 -1.452,0.338 -0.204,0.041 -0.406,0.08 -0.61,0.114 -0.485,0.082 -0.968,0.146 -1.453,0.194 -0.23,0.023 -0.459,0.043 -0.69,0.059 -0.444,0.03 -0.887,0.047 -1.331,0.05 -0.294,0.002 -0.587,-0.002 -0.881,-0.011 C -1.478,26.383 -1.85,26.362 -2.22,26.331 -2.591,26.3 -2.96,26.258 -3.33,26.208 -3.622,26.168 -3.912,26.123 -4.201,26.071 -4.638,25.995 -5.072,25.904 -5.505,25.8 -5.73,25.745 -5.953,25.687 -6.175,25.625 -6.646,25.497 -7.111,25.354 -7.574,25.191 -7.77,25.124 -7.963,25.051 -8.157,24.977 -8.62,24.8 -9.079,24.61 -9.533,24.4 c -0.199,-0.091 -0.395,-0.189 -0.591,-0.288 -0.43,-0.214 -0.856,-0.438 -1.276,-0.683 -0.215,-0.125 -0.423,-0.26 -0.633,-0.393 -0.266,-0.167 -0.539,-0.315 -0.8,-0.495 -0.117,-0.08 -0.216,-0.175 -0.33,-0.258 -0.327,-0.235 -0.638,-0.491 -0.953,-0.745 -0.29,-0.235 -0.59,-0.46 -0.865,-0.708 -0.54,-0.483 -1.059,-0.995 -1.551,-1.535 -0.181,-0.199 -0.339,-0.414 -0.511,-0.619 -0.336,-0.397 -0.67,-0.796 -0.98,-1.22 -0.175,-0.242 -0.329,-0.494 -0.494,-0.741 -0.265,-0.397 -0.528,-0.794 -0.77,-1.212 -0.046,-0.08 -0.103,-0.154 -0.148,-0.234 l -42.517,-60.957 14.105,-163.934 c 0,0 2.202,-18.564 22.67,-17.407 l 37.137,3.303 1.104,0.093 z"
             style="fill:#1d96d0;fill-opacity:1;fill-rule:nonzero;stroke:none"
             id="path92" />
        </g>
        <g
           id="g94"
           transform="translate(277.1777,304.9499)">
          <path
             d="M 0,0 C 5.27,-1.626 9.507,2.969 12.271,11.913 14.77,20 14.494,26.931 8.734,28.71 3.221,30.414 -1.319,24.836 -3.78,16.873 -6.354,8.541 -5.391,1.667 0,0"
             style="fill:#c40606;fill-opacity:1;fill-rule:nonzero;stroke:none"
             id="path96" />
        </g>
        <g
           id="g98"
           transform="translate(350.6816,262.6443)">
          <path
             d="m 0,0 c -5.149,-16.665 -18.375,-22.107 -29.894,-18.549 -12.006,3.709 -18.762,15.729 -14.265,30.715 4.39,14.213 16.42,22.309 30.021,18.106 C -0.415,26.032 4.202,13.6 0,0 m -76.408,-4.446 -9.923,3.065 71.142,68.219 10.048,-3.105 z m -14.873,67.411 c 4.392,14.214 16.422,22.308 30.023,18.106 13.723,-4.24 18.338,-16.671 14.135,-30.272 -5.148,-16.664 -18.374,-22.108 -29.892,-18.55 -12.13,3.75 -18.884,15.768 -14.266,30.716 m 71.056,89.689 c 1.475,5.161 6.854,8.149 12.015,6.674 5.161,-1.475 8.148,-6.855 6.673,-12.016 -1.475,-5.16 -6.854,-8.148 -12.015,-6.673 -5.16,1.475 -8.148,6.855 -6.673,12.015 m 28.691,-0.785 c -0.029,0.087 -0.071,0.171 -0.101,0.257 -0.157,0.459 -0.339,0.901 -0.524,1.344 -0.112,0.272 -0.214,0.547 -0.338,0.815 -0.223,0.479 -0.474,0.936 -0.729,1.392 -0.128,0.233 -0.241,0.473 -0.379,0.702 -0.38,0.625 -0.79,1.227 -1.226,1.806 -0.222,0.296 -0.473,0.575 -0.712,0.862 -0.26,0.309 -0.516,0.621 -0.791,0.914 -0.096,0.103 -0.175,0.216 -0.274,0.317 -0.221,0.227 -0.461,0.425 -0.689,0.64 -0.181,0.171 -0.36,0.344 -0.546,0.508 -0.365,0.322 -0.74,0.624 -1.12,0.917 -0.173,0.135 -0.347,0.268 -0.524,0.397 -0.406,0.293 -0.819,0.569 -1.239,0.831 -0.176,0.11 -0.351,0.219 -0.53,0.323 -0.424,0.248 -0.853,0.479 -1.289,0.696 -0.206,0.103 -0.414,0.203 -0.624,0.3 -0.405,0.186 -0.813,0.359 -1.227,0.519 -0.274,0.106 -0.55,0.207 -0.828,0.302 -0.353,0.121 -0.708,0.232 -1.066,0.334 -0.357,0.103 -0.718,0.196 -1.081,0.28 -0.287,0.066 -0.574,0.126 -0.863,0.181 -0.435,0.083 -0.873,0.152 -1.316,0.208 -0.229,0.029 -0.458,0.054 -0.688,0.075 -0.485,0.046 -0.971,0.077 -1.462,0.09 -0.207,0.006 -0.414,0.007 -0.621,0.006 -0.495,-0.001 -0.992,-0.016 -1.491,-0.051 -0.219,-0.015 -0.436,-0.037 -0.655,-0.06 -0.478,-0.047 -0.955,-0.106 -1.435,-0.186 -0.245,-0.041 -0.488,-0.093 -0.732,-0.143 -0.307,-0.062 -0.615,-0.103 -0.923,-0.179 -0.137,-0.034 -0.264,-0.087 -0.4,-0.124 -0.389,-0.104 -0.771,-0.233 -1.155,-0.359 -0.354,-0.116 -0.715,-0.221 -1.06,-0.354 -0.676,-0.262 -1.343,-0.555 -1.995,-0.887 -0.24,-0.121 -0.463,-0.266 -0.697,-0.396 -0.455,-0.252 -0.909,-0.507 -1.349,-0.794 -0.249,-0.164 -0.483,-0.345 -0.724,-0.518 -0.389,-0.276 -0.776,-0.555 -1.15,-0.86 -0.072,-0.058 -0.151,-0.107 -0.222,-0.166 L -87.68,119.892 -132.63,-38.389 c 0,0 -4.525,-18.137 15.024,-24.316 l 35.894,-10.081 13.231,-3.782 35.801,-10.411 c 19.86,-5.086 25.604,12.703 25.604,12.703 L 38.414,83.85 Z"
             style="fill:#c40606;fill-opacity:1;fill-rule:nonzero;stroke:none"
             id="path100" />
        </g>
        <g
           id="g102"
           transform="translate(333.1567,282.822)">
          <path
             d="m 0,0 c -5.635,1.741 -10.055,-3.873 -12.515,-11.836 -2.696,-8.296 -1.734,-15.169 3.656,-16.834 5.27,-1.629 9.509,2.968 12.273,11.912 C 5.911,-8.672 5.76,-1.778 0,0"
             style="fill:#c40606;fill-opacity:1;fill-rule:nonzero;stroke:none"
             id="path104" />
        </g>
      </g>
    </g>
  </g>
</svg>
